<?xml version="1.0" standalone="no"?><!DOCTYPE svg PUBLIC "-//W3C//DTD SVG 1.1//EN" "http://www.w3.org/Graphics/SVG/1.1/DTD/svg11.dtd"><svg t="1764857326607" class="icon" viewBox="0 0 1024 1024" version="1.1" xmlns="http://www.w3.org/2000/svg" p-id="8377" xmlns:xlink="http://www.w3.org/1999/xlink" width="128" height="128"><path d="M759.5 339.4l-144-143.9v143.9h144zM554.2 400l0.1-242.6h-291c-9.7 0-17.9 3.3-24.5 10-6.7 6.7-10 14.8-10 24.5v637.7c0 9.7 3.3 17.9 10 24.5 6.6 6.7 14.8 10 24.5 10l496.2-0.2c9.7 0 17.9-3.3 24.5-10 6.6-6.6 10-14.8 10-24.5V400.6l-239.8-0.6zM270.4 97.9h345.1l241.6 241.6v483.2c0 28.5-10.1 53-30.3 73.2s-44.6 30.4-73.2 30.4H270.4c-28.5 0-53-10.1-73.2-30.4-20.2-20.1-30.3-44.6-30.3-73.2V201.4c0-28.5 10.1-52.9 30.3-73.2 20.2-20.2 44.7-30.3 73.2-30.3z" p-id="8378" fill="#6D6D6D"></path><path d="M512 748.7c-8.2 0-15.1-2.8-20.9-8.7-5.8-5.9-8.7-12.7-8.7-20.9v-74h-74c-8.2 0-15-2.8-20.9-8.7-5.8-5.8-8.7-12.6-8.7-20.8 0-8.3 2.8-15.1 8.7-21 5.9-5.8 12.7-8.7 20.9-8.7h74v-74c0-8.2 2.8-15 8.7-20.9 5.9-5.8 12.7-8.6 20.9-8.6 8.1 0 15 2.8 20.9 8.7 5.8 5.8 8.6 12.7 8.6 20.8v74h74c8.2 0 15 2.8 20.9 8.7 5.8 5.8 8.7 12.7 8.7 21 0 8.2-2.8 15-8.7 20.8s-12.7 8.7-20.9 8.7h-74v74c0 8.1-2.8 15-8.7 20.9-5.7 5.9-12.6 8.7-20.8 8.7z" p-id="8379" fill="#6D6D6D"></path></svg>