<?xml version="1.0" standalone="no"?><!DOCTYPE svg PUBLIC "-//W3C//DTD SVG 1.1//EN" "http://www.w3.org/Graphics/SVG/1.1/DTD/svg11.dtd"><svg t="1765211016900" class="icon" viewBox="0 0 1024 1024" version="1.1" xmlns="http://www.w3.org/2000/svg" p-id="5861" xmlns:xlink="http://www.w3.org/1999/xlink" width="128" height="128"><path d="M640.189824 347.992428h235.811908v164.478806a38.309443 38.309443 0 0 0 76.618886 0v-200.839803a37.84981 37.84981 0 0 0-12.679886-28.077604c-0.269785-0.289769-0.259793-0.729418-0.53957-0.999203L667.238249 10.461655c-9.99203-9.99203-24.66033-12.689878-37.969714-8.66309H173.801832C103.427965 1.798565 46.133665 59.092865 46.133665 129.466733V895.485728C46.133665 965.899563 103.417973 1023.183871 173.801832 1023.183871h293.645778a38.309443 38.309443 0 0 0 0-76.618886H173.801832a51.129217 51.129217 0 0 1-51.059273-51.089249V129.466733a51.119225 51.119225 0 0 1 51.059273-51.059274h428.078549v231.285519a38.299451 38.299451 0 0 0 38.309443 38.29945z m38.309443-76.618886V130.026286L819.846523 271.383535z" p-id="5862" fill="#707070"></path><path d="M842.098774 829.268545L965.690193 700.141541a38.319435 38.319435 0 0 0-55.355846-52.957759L789.141015 773.842755 667.867747 647.153806a38.319435 38.319435 0 0 0-55.355846 52.957759l123.561443 129.15698-123.561443 129.117011a38.319435 38.319435 0 0 0 55.355846 52.957759L789.141015 884.684343l121.2333 126.688949a38.319435 38.319435 0 1 0 55.355846-52.957759z" p-id="5863" fill="#707070"></path></svg>