<?xml version="1.0" standalone="no"?><!DOCTYPE svg PUBLIC "-//W3C//DTD SVG 1.1//EN" "http://www.w3.org/Graphics/SVG/1.1/DTD/svg11.dtd"><svg t="1764847071507" class="icon" viewBox="0 0 1024 1024" version="1.1" xmlns="http://www.w3.org/2000/svg" p-id="5971" xmlns:xlink="http://www.w3.org/1999/xlink" width="81" height="81"><path d="M942.325 366.08L514.205 69.503a29.657 29.657 0 0 0-35.131 0.993L78.437 382.94a29.66 29.66 0 0 0 18.808 53.045l94.935-1.818v416.711c0 3.101 0.479 6.089 1.362 8.898h-39.931c-27.024 0-48.931 21.907-48.931 48.931v0.02c0 27.024 21.907 48.931 48.931 48.931h714.845c27.024 0 48.931-21.907 48.931-48.931v-0.02c0-27.024-21.907-48.931-48.931-48.931h-29.55a29.626 29.626 0 0 0 1.362-8.898v-429.12l85.733-1.641a29.66 29.66 0 0 0 27.826-21.078 29.66 29.66 0 0 0-11.502-32.959zM498.354 130.688l334.722 231.876-647.955 12.405 313.233-244.281zM398.323 430.22l83.05-1.59v422.248c0 3.101 0.479 6.089 1.362 8.898h-85.774a29.626 29.626 0 0 0 1.362-8.898V430.22z m142.372 420.658V427.494l93.432-1.789v425.173c0 3.101 0.479 6.089 1.362 8.898h-96.156a29.653 29.653 0 0 0 1.362-8.898z m-289.193 0V433.031l87.499-1.675v419.522c0 3.101 0.479 6.089 1.362 8.898H250.14a29.653 29.653 0 0 0 1.362-8.898z m530.807 8.899h-90.223a29.626 29.626 0 0 0 1.362-8.898V424.57l87.499-1.675v427.984c0 3.1 0.48 6.088 1.362 8.898z" fill="#4072E5" p-id="5972"></path></svg>