<?xml version="1.0" standalone="no"?><!DOCTYPE svg PUBLIC "-//W3C//DTD SVG 1.1//EN" "http://www.w3.org/Graphics/SVG/1.1/DTD/svg11.dtd"><svg t="1764847620540" class="icon" viewBox="0 0 1024 1024" version="1.1" xmlns="http://www.w3.org/2000/svg" p-id="12339" xmlns:xlink="http://www.w3.org/1999/xlink" width="81" height="81"><path d="M853.332907 127.99984H170.667093a127.99984 127.99984 0 0 0-33.279958 251.306353L209.067045 986.4521a42.666613 42.666613 0 0 0 42.666614 37.54662h520.959348a42.666613 42.666613 0 0 0 42.666614-37.54662l71.253244-607.145907A127.99984 127.99984 0 0 0 853.332907 127.99984z m-118.613185 810.665653H289.280278L224.00036 383.99952h575.99928zM853.332907 298.666293H170.667093a42.666613 42.666613 0 0 1 0-85.333226h682.665814a42.666613 42.666613 0 0 1 0 85.333226zM512 85.333227a42.666613 42.666613 0 0 1 42.666613 42.666613h85.333227a127.99984 127.99984 0 0 0-255.99968 0h85.333227a42.666613 42.666613 0 0 1 42.666613-42.666613z" p-id="12340" fill="#d81e06"></path><path d="M597.333227 682.665813a31.146628 31.146628 0 0 0 2.986663 12.799984l39.67995 79.786567h-37.973286v-29.013297l-78.933235 52.053268a8.533323 8.533323 0 0 0 0 14.079983l78.933235 52.9066v-29.866629h76.373238c39.253284-9.813321 32.853292-58.45326 32.853292-58.45326l-57.173262-108.799864-2.986663-3.413329a28.586631 28.586631 0 0 0-23.893303-13.22665 30.293295 30.293295 0 0 0-29.866629 31.146627zM350.293535 835.412289h127.146508a29.439963 29.439963 0 0 0 10.239987-55.893263 29.439963 29.439963 0 0 0-12.799984-3.839996H384.00016l17.493311-34.559956 26.026635 13.653316-9.386655-94.719882a8.533323 8.533323 0 0 0-12.799984-6.399992l-82.77323 44.799944 26.4533 13.653317-35.413289 67.413249c-8.959989 39.253284 36.693287 55.893263 36.693287 55.893263zM457.813401 618.665893a31.573294 31.573294 0 0 0 9.386655-8.959988l46.933275-77.226571 20.479974 32.853293-24.746636 15.35998 85.333227 42.666614a8.959989 8.959989 0 0 0 12.373318-7.253324l4.266661-95.146548-25.599968 15.359981-39.253284-66.986583c-28.586631-28.159965-66.986583 2.133331-66.986583 2.13333l-63.573254 105.386535v3.839995a29.013297 29.013297 0 0 0 0 27.733299 30.293295 30.293295 0 0 0 41.386615 10.239987z" p-id="12341" fill="#d81e06"></path></svg>