<?xml version="1.0" standalone="no"?><!DOCTYPE svg PUBLIC "-//W3C//DTD SVG 1.1//EN" "http://www.w3.org/Graphics/SVG/1.1/DTD/svg11.dtd"><svg t="1764252556641" class="icon" viewBox="0 0 1024 1024" version="1.1" xmlns="http://www.w3.org/2000/svg" p-id="4975" xmlns:xlink="http://www.w3.org/1999/xlink" width="81" height="81"><path d="M898.544941 44.378353C894.855529 20.901647 870.806588 4.532706 843.896471 8.764235L530.718118 57.780706a36.352 36.352 0 0 0-0.376471-4.005647l-2.951529-18.808471C524.559059 16.805647 506.925176 3.568941 488.417882 6.535529a34.183529 34.183529 0 0 0-28.446117 38.972236l2.93647 18.823529c0.210824 1.340235 0.496941 2.650353 0.858353 3.930353L150.573176 117.263059c-26.398118 4.156235-44.845176 26.849882-41.125647 50.612706 3.297882 21.022118 22.784 36.276706 46.336 36.276706 2.740706 0 5.511529-0.210824 8.312471-0.64753l14.004706-2.198588a14.908235 14.908235 0 0 0-1.15953 5.737412v652.122353c0 94.825412 62.147765 161.054118 151.130353 161.054117h342.994824c88.636235 0 183.521882-64.722824 183.521882-161.054117V207.058824a15.058824 15.058824 0 0 0-15.058823-15.058824H237.658353l619.730823-96.993882c26.398118-4.141176 44.860235-26.834824 41.155765-50.627765zM824.470588 859.181176c0 77.161412-80.835765 130.936471-153.404235 130.936471H328.071529c-72.387765 0-121.012706-52.615529-121.012705-130.936471V222.117647h617.411764v637.063529zM493.688471 36.246588a4.065882 4.065882 0 0 1 3.930353 3.388236l2.951529 18.80847a4.050824 4.050824 0 0 1-2.981647 4.502588 10.270118 10.270118 0 0 0-0.948706 0.13553 4.096 4.096 0 0 1-3.960471-3.388236l-2.93647-18.823529c-0.346353-2.138353 1.189647-4.231529 3.945412-4.623059z m359.047529 28.596706l-693.293176 108.122353c-9.908706 1.566118-19.139765-4.261647-20.239059-11.294118-1.129412-7.243294 6.219294-16.203294 16.022588-17.754353L501.895529 86.588235h0.060236L848.564706 35.343059c9.923765-1.641412 19.139765 6.460235 20.224 13.507765 1.129412 7.243294-6.234353 14.471529-16.052706 15.99247z" p-id="4976" fill="#CC7A52"></path><path d="M380.235294 847.058824a7.529412 7.529412 0 0 0 7.529412-7.529412v-512a7.529412 7.529412 0 0 0-15.058824 0v512a7.529412 7.529412 0 0 0 7.529412 7.529412zM621.176471 847.058824a7.529412 7.529412 0 0 0 7.529411-7.529412v-512a7.529412 7.529412 0 0 0-15.058823 0v512a7.529412 7.529412 0 0 0 7.529412 7.529412z" p-id="4977" fill="#CC7A52"></path></svg>