<?xml version="1.0" standalone="no"?><!DOCTYPE svg PUBLIC "-//W3C//DTD SVG 1.1//EN" "http://www.w3.org/Graphics/SVG/1.1/DTD/svg11.dtd"><svg t="1765023708683" class="icon" viewBox="0 0 1024 1024" version="1.1" xmlns="http://www.w3.org/2000/svg" p-id="4549" xmlns:xlink="http://www.w3.org/1999/xlink" width="128" height="128"><path d="M512.425935 340.69913c-94.081631 0-170.349565 76.267934-170.349565 170.349565s76.267934 170.349565 170.349565 170.349565 170.349565-76.267934 170.349565-170.349565S606.507566 340.69913 512.425935 340.69913zM512.425935 608.391304c-53.759889 0-97.342609-43.580286-97.342609-97.342609 0-53.759889 43.582719-97.342609 97.342609-97.342609 53.762323 0 97.342609 43.582719 97.342609 97.342609C609.768543 564.811018 566.188257 608.391304 512.425935 608.391304z" fill="#4D4D4D" p-id="4550"></path><path d="M1000.027229 362.287287l-102.209739-7.264192 67.370819-77.672101c-46.512732-89.650109-119.668136-166.015385-214.039361-215.927808l-77.930059 67.587407-7.3445-103.355948c-101.820369-32.342082-207.514973-30.974418-303.979064-1.33116l-7.393171 104.030046-79.076268-68.580301C186.165147 106.264059 110.123535 179.195575 60.342525 273.201765l69.127853 79.708995L23.892585 360.411008c-31.833467 101.4456-30.249216 206.655924-0.647328 302.699009l105.631332 7.505115-69.495322 80.130002c46.697683 88.907872 119.699772 164.572281 213.652424 214.049096l80.341722-69.682706 7.536751 106.081541c101.263082 31.395425 206.205715 29.548349 301.97624-0.167916l7.225255-101.650019 77.226759 66.979015c90.002976-46.707417 166.609175-120.283828 216.492395-215.222074l-66.713757-76.920129 101.856872-7.239857C1031.373982 564.898626 1029.901676 458.933896 1000.027229 362.287287zM941.507286 597.868568l-101.535641 7.215521c-7.784975 27.173189-18.867431 52.949512-32.772823 76.881192l66.908442 77.146451c-31.541439 46.59304-71.656328 86.435369-118.553563 117.733452l-78.066339-67.706651c-23.844072 13.233728-49.437877 23.681023-76.353109 30.92088l-7.329898 103.12476c-53.998379 10.376722-109.853567 10.437561-163.817876 0.133846l-7.354234-103.550633c-27.956797-7.621926-54.489959-18.694648-79.090869-32.765522l-78.441108 68.032749c-45.755893-31.047425-84.997132-70.383573-116.015354-116.292781l67.765057-78.132045c-14.168217-24.647148-25.321246-51.243583-33.006445-79.273387l-102.659949-7.295829c-10.376722-54.511861-10.25261-110.172364 0.369902-164.533344l101.883641-7.237423c7.648695-28.411874 18.86013-55.363609 33.15976-80.324687L150.189753 265.372986c31.273747-45.8289 70.877587-85.079873 117.08369-116.032389L343.268817 215.248843c25.04382-14.350734 52.090463-25.596239 80.606981-33.252235l7.084108-99.669097c54.696812-10.323184 111.252867-10.082261 165.803665 0.788475l7.079241 99.656929c28.285328 7.860416 55.088616 19.27627 79.898813 33.738948l75.255571-65.265785c46.145264 31.44653 85.615258 71.325363 116.677284 117.877032l-65.752499 75.80799c13.825084 24.70312 24.666617 51.299555 32.025718 79.312324l100.180146 7.120612C952.684651 486.530525 952.472931 542.865127 941.507286 597.868568z" fill="#4D4D4D" p-id="4551"></path></svg>